<?xml version="1.0" standalone="no"?>
<!DOCTYPE svg PUBLIC "-//W3C//DTD SVG 20010904//EN"
 "http://www.w3.org/TR/2001/REC-SVG-20010904/DTD/svg10.dtd">
<svg version="1.0" xmlns="http://www.w3.org/2000/svg"
 width="512.000000pt" height="512.000000pt" viewBox="0 0 512.000000 512.000000"
 preserveAspectRatio="xMidYMid meet">
<metadata>
Created by potrace 1.11, written by Peter Selinger 2001-2013
</metadata>
<g transform="translate(0.000000,512.000000) scale(0.100000,-0.100000)"
fill="#000000" stroke="none">
<path d="M3185 4953 c-153 -143 -438 -413 -570 -538 -43 -42 -62 -66 -59 -80
2 -11 6 -54 9 -95 20 -267 20 -276 30 -403 4 -54 8 -104 9 -110 3 -23 17 -37
72 -73 l55 -37 -30 -31 c-35 -36 -38 -51 -14 -60 11 -4 28 4 49 25 41 40 26
46 244 -106 91 -63 222 -154 293 -202 l127 -87 28 26 c160 151 416 395 487
463 35 33 89 85 122 116 66 61 62 43 48 209 -7 93 -10 127 -20 274 -4 54 -9
106 -10 115 -2 9 -4 37 -4 63 -1 45 -3 48 -57 85 -31 21 -61 43 -67 48 -7 6
-32 24 -57 40 -24 17 -132 91 -240 165 -107 74 -206 143 -220 152 -14 10 -44
31 -68 48 -94 66 -79 67 -157 -7z m146 -1110 c13 -16 12 -17 -3 -4 -17 13 -22
21 -14 21 2 0 10 -8 17 -17z"/>
<path d="M1781 3490 c-30 -27 -124 -116 -209 -197 -85 -82 -198 -188 -250
-238 -170 -162 -193 -185 -189 -192 4 -8 14 -110 23 -243 13 -188 26 -352 30
-374 2 -11 7 -23 11 -27 8 -7 217 -152 373 -259 208 -142 295 -204 298 -212 2
-4 8 -8 14 -8 5 0 24 -11 41 -24 55 -40 58 -39 149 47 309 296 402 382 410
379 5 -1 39 -26 76 -55 37 -28 72 -55 77 -60 170 -131 281 -220 283 -225 1 -4
-37 -44 -85 -89 -192 -178 -275 -261 -270 -270 3 -4 8 -51 12 -103 4 -52 8
-117 10 -145 2 -27 6 -77 9 -110 5 -50 11 -126 20 -253 2 -22 43 -52 591 -430
224 -155 208 -148 247 -105 14 16 91 91 173 168 181 171 201 190 357 338 140
132 127 103 113 267 -3 41 -8 100 -10 130 -2 30 -6 82 -9 115 -3 33 -8 96 -12
140 -3 44 -6 89 -7 100 -2 18 -146 124 -477 350 -52 35 -117 80 -145 100 -27
19 -77 53 -109 75 -68 46 -53 51 -175 -65 -218 -208 -198 -192 -214 -173 -6 8
-52 46 -102 84 -121 91 -308 235 -318 244 -5 4 30 45 76 90 53 50 84 88 82 98
-1 10 -6 64 -9 122 -4 58 -9 123 -11 145 -3 22 -8 78 -11 125 -3 47 -7 101 -9
120 -2 19 -4 54 -4 77 -1 40 -4 44 -73 93 -145 103 -309 216 -404 280 -53 36
-101 70 -108 75 -6 6 -31 23 -56 40 -25 16 -68 47 -97 67 -29 21 -53 38 -55
38 -2 0 -27 -23 -57 -50z"/>
<path d="M2548 3444 c-49 -46 -59 -68 -34 -77 19 -7 116 80 116 104 0 32 -32
21 -82 -27z"/>
<path d="M2412 3316 c-55 -40 -85 -75 -78 -91 3 -8 11 -15 18 -15 20 1 108 83
108 102 0 27 -15 29 -48 4z"/>
</g>
</svg>
