<svg class="rotate" xmlns="http://www.w3.org/2000/svg" viewBox="0 0 251.99000549316406 87.55000305175781" width="100%" height="100%"  xmlns:xlink="http://www.w3.org/1999/xlink" preserveAspectRatio="xMinYMin meet"><rect id="svgEditorBackground" x="0" y="0" width="251.99000549316406" height="87.55000305175781" style="fill: none; stroke: none;"/><defs id="svgEditorDefs"><marker id="arrow20-16-left" markerHeight="16" markerUnits="strokeWidth" markerWidth="20" orient="auto" refX="3" refY="0" viewBox="0 -5 20 20"><path d="M15,-5l-15,5l15,5Z" fill="black"/></marker></defs><defs><style>.cls-1{fill:#fff;}.cls-2{fill:#c7eafb;}.cls-3{fill:#44c8f5;}.cls-4{fill:#231f20;}.cls-5{fill:#00a2e5;}.cls-6,.cls-7,.cls-8{fill:none;stroke:#231f20;stroke-linecap:round;}.cls-6{stroke-width:0.41px;}.cls-7{stroke-width:0.75px;}.cls-8{stroke-miterlimit:1;stroke-width:0.9px;stroke-dasharray:2.1 2.1 2.1 2.1 2.1 2.1;}</style></defs><title>Danet_Logo_SVG</title><g id="Layer_2" data-name="Layer 2" transform="matrix(1.00194 0 0 1 -177.355 2.20528)"><polygon class="cls-1" points="236.65 0.36 224.25 12.2 238.38 21.71 250.88 10.14 236.65 0.36"/><polygon class="cls-1" points="236.57 53.14 224.17 64.98 238.3 74.49 250.8 62.93 236.57 53.14"/><polygon class="cls-1" points="210.65 27.27 198.25 39.12 212.38 48.63 224.88 37.06 210.65 27.27"/><polygon class="cls-2" points="225.77 48.75 213.3 60.62 212.4 48.94 224.88 37.06 225.77 48.75"/><polygon class="cls-3" points="213.3 60.62 199.15 50.8 198.25 39.12 212.4 48.94 213.3 60.62"/><path class="cls-4" d="M213.51,60.76,226,48.85l-.89-11.69h0l0-.23,0,0-.23-.15L210.7,26.93l-.14.14L198.22,38.81l0,0L198,39l0,.13v.1l.9,11.69,14.18,9.82m12.43-12.1-12,11.44L213.42,59l-.76-10,1.82-1.73,10.21-9.71C224.75,38.51,225.51,48.44,225.52,48.65Zm-14.78-21.1,13.75,9.53-.13.12-12,11.41L199,39.35l-.37-.26ZM199.38,50.67c0-.21-.78-10.15-.85-11.07L202,42l10.21,7.08L213,60.14Z"/><polygon class="cls-2" points="251.59 21.82 239.11 33.69 238.22 22 250.69 10.13 251.59 21.82"/><polygon class="cls-3" points="239.11 33.69 224.96 23.87 224.06 12.18 238.22 22 239.11 33.69"/><path class="cls-4" d="M239.32,33.82l12.51-11.91-.9-11.69h0l0-.23,0,0-.23-.15L236.51,0l-.14.14L224,11.87l0,0-.19.17,0,.13v.1L224.72,24l14.19,9.82m12.43-12.1-12,11.44-.08-1.11c-.22-2.81-.75-9.78-.76-10l1.82-1.73,10.21-9.71C250.56,11.57,251.32,21.51,251.34,21.72ZM236.56.62l13.75,9.53-.13.12-12,11.41-13.37-9.28-.37-.26ZM225.19,23.74c0-.21-.78-10.15-.85-11.07l3.43,2.38L238,22.13l.85,11.07Z"/><path class="cls-6" d="M179.09,22.36"/><polygon class="cls-2" points="251.74 74.58 239.27 86.45 238.37 74.77 250.84 62.89 251.74 74.58"/><polygon class="cls-3" points="239.27 86.45 225.11 76.64 224.22 64.95 238.37 74.77 239.27 86.45"/><path class="cls-4" d="M239.48,86.59,252,74.68,251.1,63h0l0-.23,0,0-.23-.15-14.16-9.82-.14.14L224.19,64.64l0,0-.19.17,0,.12v.1l.9,11.69,14.18,9.82m12.43-12.1-12,11.45-.09-1.11c-.22-2.81-.75-9.78-.76-10l1.82-1.73,10.21-9.71Zm-14.78-21.1,13.75,9.53-.12.12-12,11.41L225,65.18l-.37-.26ZM225.34,76.5c0-.21-.78-10.15-.85-11.07l3.43,2.38,10.21,7.08L239,86Z"/><line class="cls-7" x1="219.4" y1="49.53" x2="230.72" y2="58.3"/><line class="cls-8" x1="220.14" y1="32.56" x2="230.84" y2="22.7"/></g></svg>